PathFileType	3	(X/Y/Z)	D:\minhoCalibration\240510\subject3_KPNP\preferred\preferred02.trc
DataRate	CameraRate	NumFrames	NumMarkers	Units	OrigDataRate	OrigDataStartFrame	OrigNumFrames
200.0	200.0	15	10	mm	200.0	232	111	
Frame#	Time	Left_Ankle_Outer1			Left_Ankle_Inner1			Left_Knee_Outer1			Left_Knee_Inner1			Left_Wrist1			Right_Wrist1			Right_Knee_Inner1			Right_Knee_Outer1			Right_Ankle_Inner1			Right_Ankle_Outer1			
		X1	Y1	Z1	X2	Y2	Z2	X3	Y3	Z3	X4	Y4	Z4	X5	Y5	Z5	X6	Y6	Z6	X7	Y7	Z7	X8	Y8	Z8	X9	Y9	Z9	X10	Y10	Z10	
232	1.15	-311.86975	136.40485	-551.07104	-360.72827	155.85474	-525.8139	-138.29959	533.38239	-483.0531	-201.86531	549.88147	-403.58524	-147.53647	917.67151	-708.47272	-340.70276	1123.0272	-445.63889	-287.478	945.84052	-53.537113	-324.44666	1055.686	-79.527016	-680.09204	779.79883	-13.1099	-727.19037	874.93591	12.883364
233	1.155	-310.78656	135.76888	-550.99359	-359.75119	155.17528	-526.19189	-138.24771	533.05469	-481.08282	-202.15953	549.45355	-401.65878	-151.03171	915.20117	-708.78625	-337.98499	1125.0148	-446.81561	-277.93564	957.72406	-54.037014	-311.73859	1065.7256	-83.960709	-666.62909	800.0835	34.945717	-710.80652	896.81641	58.353645
234	1.16	-309.75766	134.96783	-550.8985	-358.76105	154.35873	-526.84991	-138.3969	532.66077	-478.87744	-202.32552	549.1286	-399.91949	-154.38808	911.87634	-708.87012	-335.80219	1126.8019	-448.16394	-270.12314	967.80634	-55.867207	-301.76694	1073.5388	-88.986809	-649.92346	822.06635	82.372459	-690.77875	920.33514	103.72046
235	1.165	-307.68286	134.72205	-551.35669	-357.70889	153.48347	-527.50336	-138.53606	532.16028	-476.67453	-203.15019	548.43854	-398.18265	-157.32727	908.81226	-708.37384	-333.9447	1128.0999	-449.66431	-264.2489	975.88513	-58.242474	-294.29358	1079.47	-94.188187	-629.27441	845.39612	128.38864	-665.89978	945.23578	147.59824
236	1.17	-306.64755	133.81502	-551.39221	-356.67419	152.60202	-528.27661	-138.84694	531.646	-474.36893	-203.73355	547.81238	-396.29352	-159.85881	905.78821	-707.46027	-332.91647	1129.1602	-451.14325	-260.36667	982.40186	-61.094456	-289.2254	1083.9209	-99.390137	-604.99225	869.85059	171.83835	-637.1048	971.12939	188.9496
237	1.175	-306.12329	132.49786	-551.32892	-355.76999	151.78653	-529.15228	-139.27002	531.11194	-472.04987	-204.77399	547.0575	-394.59393	-162.04895	902.84375	-706.08649	-331.84872	1130.1864	-452.96912	-258.1553	987.5202	-64.100883	-286.62234	1086.5187	-104.25196	-576.52625	895.74927	213.03165	-603.90765	998.43256	227.36821
238	1.18	-304.38971	132.5573	-551.97968	-354.9801	151.12636	-530.03644	-139.65831	530.64307	-469.82083	-205.63547	546.31793	-392.86179	-164.02698	900.09973	-704.06085	-331.50885	1130.8379	-454.71838	-257.6286	991.2392	-66.845406	-285.68726	1088.1898	-108.20225	-543.59753	922.36206	250.57846	-565.39362	1026.2955	261.63702
239	1.185	-304.52124	131.48067	-551.74695	-354.58563	150.60005	-530.76044	-140.33093	530.2063	-467.48035	-207.03419	545.87524	-391.16333	-165.73343	897.6192	-701.55725	-332.20596	1131.1378	-456.11179	-258.6044	993.64813	-68.741692	-286.28986	1088.8226	-110.70032	-507.74847	949.53308	283.29483	-523.38287	1054.4614	289.77451
240	1.19	-303.43469	131.65749	-552.46509	-354.40323	150.24657	-531.39136	-140.64479	529.62555	-465.43381	-208.40811	545.02606	-389.94092	-167.27185	895.61835	-698.46039	-332.94193	1131.6494	-457.58875	-260.54016	995.18909	-69.489342	-287.82886	1087.7747	-112.30082	-463.70892	975.82843	311.18958	-479.00143	1080.7927	310.71753
241	1.195	-303.35727	131.55534	-552.70227	-354.47208	150.01443	-531.82178	-141.12434	529.23602	-463.43637	-209.95103	544.35956	-388.11902	-168.66057	894.02991	-694.76892	-334.50479	1131.9983	-458.37888	-262.90021	996.35803	-69.661392	-289.64297	1086.2292	-113.43584	-424.96616	997.85211	328.03363	-433.99744	1105.5365	325.12094
242	1.2	-304.39749	130.89542	-552.43292	-354.87469	149.83643	-532.19	-141.69023	528.84467	-461.33218	-210.90909	543.89734	-386.17328	-169.51331	892.99408	-690.67242	-336.79797	1132.6821	-458.81345	-265.202	997.27625	-70.046364	-293.69989	1084.5629	-113.73441	-381.06012	1016.0496	339.15399	-384.75568	1125.3911	329.63086
243	1.205	-304.12021	131.53033	-552.93134	-355.46832	149.81641	-532.24829	-142.21283	528.23608	-459.49628	-211.85745	542.51416	-385.60809	-170.47899	892.48279	-685.99237	-339.20908	1133.776	-458.45584	-266.83594	997.78516	-70.643715	-299.46054	1084.134	-113.10153	-341.95969	1038.2218	343.24988	-343.28424	1148.3003	323.05615
244	1.21	-304.90155	131.61575	-553.07117	-356.15427	149.7834	-532.17664	-142.74405	527.74084	-457.50867	-213.04852	541.47919	-382.43414	-170.97632	892.48254	-680.93567	-342.43011	1135.0017	-457.47565	-267.44278	997.80774	-71.342216	-306.07559	1088.7826	-113.06458	-325.24124	1052.824	341.98257	-325.08139	1159.8485	313.86859
245	1.215	-305.81754	131.69189	-553.02185	-356.79819	149.70607	-531.92773	-143.38855	527.2605	-455.28445	-213.76961	540.87701	-380.11865	-171.14861	892.78247	-675.61365	-345.93079	1136.3601	-455.82257	-266.13794	997.04395	-71.472992	-312.16037	1093.0961	-113.98707	-319.30249	1059.2937	341.68558	-319.83212	1165.016	312.89151
246	1.22	-306.40948	131.73482	-553.01752	-357.42029	149.67075	-531.97516	-144.15541	526.63995	-452.76379	-214.27951	540.14362	-376.99301	-170.90724	893.45166	-670.09863	-350.05771	1136.6694	-454.29929	-263.20786	998.06439	-71.159706	-316.33517	1095.9402	-113.9743	-317.45242	1059.293	340.59027	-323.08365	1165.5863	319.89188
